<svg viewBox="0 0 700 130" xmlns="http://www.w3.org/2000/svg" font-family="Helvetica, Arial, sans-serif" role="img" aria-label="Flujo de cálculo del motor de cinemática">
  <rect x="0" y="0" width="700" height="130" fill="#ffffff"/>
  <g>
    <rect x="8" y="30" width="124" height="64" rx="8" fill="#f5f5f5" stroke="#9e9e9e" stroke-width="1.5"/>
    <text x="70" y="57" font-size="13" fill="#212121" text-anchor="middle">Foto marcada</text>
    <text x="70" y="76" font-size="11.5" fill="#616161" text-anchor="middle">puntos en píxeles</text>
  </g>
  <polygon points="146,62 134,58 134,66" fill="#9e9e9e"/>
  <g>
    <rect x="148" y="30" width="124" height="64" rx="8" fill="#f5f5f5" stroke="#9e9e9e" stroke-width="1.5"/>
    <text x="210" y="57" font-size="13" fill="#212121" text-anchor="middle">Calibración</text>
    <text x="210" y="76" font-size="11.5" fill="#616161" text-anchor="middle">píxeles → mm</text>
  </g>
  <polygon points="286,62 274,58 274,66" fill="#9e9e9e"/>
  <g>
    <rect x="288" y="30" width="124" height="64" rx="8" fill="#f5f5f5" stroke="#9e9e9e" stroke-width="1.5"/>
    <text x="350" y="57" font-size="13" fill="#212121" text-anchor="middle">Barrido</text>
    <text x="350" y="76" font-size="11.5" fill="#616161" text-anchor="middle">~100 pasos</text>
  </g>
  <polygon points="426,62 414,58 414,66" fill="#9e9e9e"/>
  <g>
    <rect x="428" y="30" width="124" height="64" rx="8" fill="#f5f5f5" stroke="#9e9e9e" stroke-width="1.5"/>
    <text x="490" y="57" font-size="13" fill="#212121" text-anchor="middle">Medidas por paso</text>
    <text x="490" y="76" font-size="11.5" fill="#616161" text-anchor="middle">distancias variables</text>
  </g>
  <polygon points="566,62 554,58 554,66" fill="#9e9e9e"/>
  <g>
    <rect x="568" y="30" width="124" height="64" rx="8" fill="#f5f5f5" stroke="#9e9e9e" stroke-width="1.5"/>
    <text x="630" y="52" font-size="13" fill="#212121" text-anchor="middle">Curvas y</text>
    <text x="630" y="68" font-size="13" fill="#212121" text-anchor="middle">descriptores</text>
    <text x="630" y="84" font-size="11.5" fill="#616161" text-anchor="middle">leverage, eje, kickback</text>
  </g>
</svg>
